<?xml version="1.0" encoding="UTF-8"?>
<svg width="350px" height="145px" viewBox="0 0 350 145" version="1.1" xmlns="http://www.w3.org/2000/svg" xmlns:xlink="http://www.w3.org/1999/xlink">
    <!-- Generator: Sketch 52.3 (67297) - http://www.bohemiancoding.com/sketch -->
    <title>Artboard</title>
    <desc>Created with Sketch.</desc>
    <g id="Artboard" stroke="none" stroke-width="1" fill="none" fill-rule="evenodd">
        <g id="morris-black" transform="translate(9.000000, 1.000000)">
            <path d="M5.99875083,96.6685111 C18.9109894,71.5372865 45.7057267,63.6517254 68,63.7515871 C94.3173342,63.8694692 107.476001,80.0104962 107.476001,112.174668 L142.515824,112.174668 L142.515824,9.48076863 L21.9230177,9.48076863 C14.4890379,24.6302341 9.65535854,36.6052411 7.42197965,45.4057896 C3.38108397,61.3287923 0.446185092,77.9895544 0.446185092,90.2353014 C0.446185092,91.9736535 0.446185092,98.8535817 0.446185092,111.741474 L3.83959302,111.741474 C3.85954682,104.45559 4.57926609,99.431269 5.99875083,96.6685111 Z" id="Wood-edge" stroke="#CD8500" fill="#CD8500"></path>
            <path d="M151.5,13.5962032 L151.5,45.5 L195.5,45.5 C195.5,32.845381 195.5,32.7360306 195.5,24.2161633 C195.5,20.7488232 195.5,20.7488232 195.5,18.4121225 C195.5,16.7439119 195.5,16.6467505 195.5,16.1059119 C195.430759,16.0541756 195.314588,15.9913944 195.156405,15.9243139 C194.779859,15.7646328 194.208454,15.5974138 193.465928,15.4297426 C192.035752,15.1067914 190.009164,14.7903132 187.602817,14.5075749 C182.936049,13.9592442 177.336037,13.5962269 173.5,13.5962269 C168.412749,13.5962269 161.079416,13.596219 151.500001,13.5962032 Z M195.517575,16.1178483 C195.517981,16.1194496 195.517819,16.1198247 195.51684,16.1190273 C195.514503,16.1171232 195.512096,16.1152021 195.50962,16.1132644 Z" id="Rectangle" stroke="#000000" fill="#000000"></path>
            <rect id="Rectangle" fill="#000000" x="75.5" y="13" width="62" height="33"></rect>
            <path d="M3.83959302,112.174668 L33.9824547,112.174668 C37.3274849,90.9889333 48.6666667,80.3960659 68,80.3960659 C87.3333333,80.3960659 98.4982515,91.1545159 101.494755,112.671416 L107.186658,112.671416 C107.546446,80.1760787 93.7331466,63.9284102 65.746761,63.9284102 C40.6211425,63.9284102 19.6300374,74.7044641 8.32302126,92.5846564 C5.38915571,97.2240837 3.89467964,103.754088 3.83959302,112.174668 Z" id="fender" stroke="#000000" fill="#000000"></path>
            <g id="wheel-back" transform="translate(39.000000, 85.000000)" stroke="#000000">
                <path d="M29,57.5 C44.7401154,57.5 57.5,44.7401154 57.5,29 C57.5,13.2598846 44.7401154,0.5 29,0.5 C13.2598846,0.5 0.5,13.2598846 0.5,29 C0.5,44.7401154 13.2598846,57.5 29,57.5 Z M29,48.5 C18.2304474,48.5 9.5,39.7695526 9.5,29 C9.5,18.2304474 18.2304474,9.5 29,9.5 C39.7695526,9.5 48.5,18.2304474 48.5,29 C48.5,39.7695526 39.7695526,48.5 29,48.5 Z" id="Combined-Shape" fill="#000000"></path>
                <circle id="Oval" stroke-width="6" cx="29" cy="29" r="12"></circle>
            </g>
            <g id="wheel-front" transform="translate(251.000000, 85.000000)" stroke="#000000">
                <path d="M29,57.5 C44.7401154,57.5 57.5,44.7401154 57.5,29 C57.5,13.2598846 44.7401154,0.5 29,0.5 C13.2598846,0.5 0.5,13.2598846 0.5,29 C0.5,44.7401154 13.2598846,57.5 29,57.5 Z M29,48.5 C18.2304474,48.5 9.5,39.7695526 9.5,29 C9.5,18.2304474 18.2304474,9.5 29,9.5 C39.7695526,9.5 48.5,18.2304474 48.5,29 C48.5,39.7695526 39.7695526,48.5 29,48.5 Z" id="Combined-Shape" fill="#000000"></path>
                <circle id="Oval" stroke-width="6" cx="29" cy="29" r="12"></circle>
            </g>
            <path d="M115.158901,107.722782 L137.103705,107.722782 L137.103705,52.2795697 L66.7533828,52.2795697 L66.7533828,57.744704 C85.1039432,57.7829678 97.8910302,62.8919346 105.114644,73.0716046 C112.338257,83.2512745 115.686343,94.8016669 115.158901,107.722782 Z" id="Path" stroke="#000000" fill="#000000"></path>
            <path d="M60.7394452,52.2795697 L60.7394452,57.8595052 C47.3017864,58.9300561 35.7589768,62.007901 26.1110164,67.0930398 C11.6390757,74.720748 4.85685885,84.3175578 4.85685885,83.6532991 C4.85685885,82.9890404 7.78452437,62.2612783 9.78062041,52.2795697 C9.78062041,52.2795697 26.7668953,52.2795697 60.7394452,52.2795697 Z" id="Path-2" stroke="#000000" fill="#000000"></path>
            <path d="M73.7394452,13.0962024 L24.0907163,13.0962024 C17.7203383,27.1137447 13.6856292,38.0816773 11.9865892,46 C11.9865892,46 32.5708745,46 73.7394452,46 L73.7394452,13.0962024 Z" id="Path-3" fill="#000000"></path>
            <path d="M142.515824,63.9284102 L142.515824,112.174668 L231.239558,112.174668 C231.239558,82.6904962 231.239558,66.6084102 231.239558,63.9284102 C231.239558,59.9084101 228.336527,50.3674227 221.209784,49.1513972 C218.546851,48.3413751 184.359039,49.1513972 148.060019,49.1513972 L148.060019,9.48076863 L142.515824,9.48076863 L142.515824,63.7515871 L142.515824,63.9284102 Z" id="Path" stroke="#000000" fill="#000000"></path>
            <path d="M235.153542,112.671416 L235.153542,63.9284102 C285.728238,62.8279703 313.885786,66.8638863 319.626184,76.0361584 C320.813246,77.9329006 321.299739,85.5875145 321.085664,99 L311.748472,104.693704 C308.662559,88.4293495 298.079735,80.2971721 280,80.2971721 C261.920265,80.2971721 249.917995,91.0885867 243.993192,112.671416 L235.153542,112.671416 Z" id="Path-5" stroke="#000000" fill="#000000"></path>
            <path d="M310,99 L331,99 L331,109 C317.666667,109.600665 310.666667,108.918222 310,106.952669 C309.333333,104.987116 309.333333,102.336227 310,99 Z" id="Rectangle" fill="#000000"></path>
            <rect id="Rectangle" fill="#000000" x="328" y="96" width="4" height="14" rx="1"></rect>
            <path d="M222.653293,42.8213959 C215.353707,26.6112877 207.068412,16.6467874 197.797405,12.927895 C188.526399,9.20900267 177.879019,8.05761961 142.515824,9.47374585 L21.9230177,9.47374585 C25.1390646,5.32693526 28.253127,2.71779967 31.2652051,1.64633907 C34.2772831,0.574878477 75.0906075,0.574878477 153.705178,1.64633907 C174.891293,2.53880664 189.588702,4.43987911 197.797405,7.34955649 C206.006109,10.2592339 215.431965,22.0831803 226.074974,42.8213959 C252.372748,43.0724987 276.68109,44.1320334 299,46 C311.58959,47.0536775 321.134726,52.2795697 326.444717,67.379841 C328.149949,72.2068534 328.668377,79.8253402 328,90.2353014 L321.134726,90.2353014 C323.597888,77.4171637 317.643069,69.7986769 303.27027,67.379841 C281.711072,63.7515871 235.153542,63.7515871 235.153542,63.7515871 C234.788239,58.8794013 233.653089,56.0939302 231.90179,52.8542818 C230.769119,50.7590048 228.208286,47.8637926 223.834744,45.5390225 C223.564573,44.975609 223.170756,44.0697335 222.653293,42.8213959 Z" id="Path" stroke="#000000" fill="#000000"></path>
            <path d="M198.751768,17.6391211 C198.751768,19.3455186 198.751768,28.6010748 198.751768,45.4057896 C211.992241,45.4057896 218.612478,45.4057896 218.612478,45.4057896 C218.612478,44.2323547 215.487151,35.7118733 210.193475,28.5121959 C206.756185,23.8373003 198.751768,15.8861032 198.751768,17.6391211 Z" id="Path-7" stroke="#000000" fill="#000000"></path>
            <rect id="Rectangle" fill="#FFFFFF" x="73" y="13" width="3" height="33"></rect>
            <path d="M198.751768,118.393534 C186.341988,112.797845 181.281305,105.333333 183.56972,96 C190.263581,71.2409318 229.3644,66.6093286 240.570053,65.2396085 C251.775707,63.8698884 311.627764,61.4827617 323.228033,91.8260023" id="Path-4" stroke="#FFFFFF" stroke-width="2"></path>
            <path d="M148.5,59.8277184 L268.5,59.8277184" id="Line" stroke="#FFFFFF" stroke-width="2" stroke-linecap="round"></path>
            <ellipse id="Oval" fill="#FFFFFF" cx="154.427943" cy="60" rx="4.5" ry="4"></ellipse>
            <path d="M261,64.5433442 C281.492994,64.0155062 295.479502,64.0155062 302.959523,64.5433442 C314.179556,65.3351012 318.564179,66.8035439 323.228033,70.8185497 C327.891888,74.8335555 328.564618,79.2175429 328.282309,90.941049" id="Path-6" stroke="#FFFFFF" stroke-width="2"></path>
            <path d="M294.549949,44.1621233 C304.465877,43.8944925 309.679806,43.9794974 310.191737,44.4171381 C310.703667,44.8547789 311.221017,45.7871301 311.743787,47.2141919 C308.497928,46.1067209 305.872398,45.3750144 303.867197,45.0190723 C301.861996,44.6631302 298.756246,44.3774805 294.549949,44.1621233 Z" id="Path-8" stroke="#000000" fill="#000000"></path>
        </g>
    </g>
</svg>